<svg xmlns="http://www.w3.org/2000/svg" version="1.1" xmlns:xlink="http://www.w3.org/1999/xlink"
  xmlns:svgjs="http://svgjs.dev/svgjs" width="100%" height="100%" viewBox="0 0 1920 1080">
  <g>
    <path
      d="M995 313L995 313L1002 306L1008 302L1047 302L1048 249L1046 242L1039 241L1050 225L1055 224L1054 219L1045 217L1036 217L1027 215L1022 214L1019 211L1019 210L1027 206L1038 204L1050 202L1066 201L1084 200L1105 200L1124 200L1144 200L1161 201L1177 202L1189 204L1195 206L1198 208L1198 209L1192 213L1183 213L1175 216L1164 217L1164 219L1177 220L1179 223L1185 226L1176 232L1176 266L1233 266L1236 272L1243 275L1234 278L1234 285L1232 285L1232 319L1167 320L1160 320L1155 327L1160 333L1161 422L1119 423L1119 427L1108 429L1120 436L1119 488L1065 488L1066 492L1053 494L1067 511L1066 627L1054 629L1056 667L1036 658L1004 655L1007 566L999 543L1002 319L1000 314L995 313 z"
      opacity="0" fill="#ffffff" cursor="pointer"></path>
    <path
      d="M834 430L834 430L834 427L825 427L824 422L772 420L770 380L774 379L772 373L776 369L781 368L772 361L771 347L748 346L747 312L740 310L708 309L708 286L705 284L706 279L698 274L705 269L763 269L764 237L762 230L754 226L761 224L761 221L772 220L772 217L762 216L752 215L743 212L739 211L737 209L740 206L748 203L762 202L778 200L796 199L820 199L846 200L864 201L881 202L893 204L906 205L915 209L918 211L916 213L907 216L897 216L890 217L881 218L881 219L885 225L889 226L898 241L890 244L888 248L891 297L931 296L931 301L942 312L935 316L936 543L932 556L932 653L906 655L896 658L883 665L884 628L879 626L877 516L887 498L887 493L879 492L878 488L824 484L823 436L834 430 z"
      opacity="0" fill="#ffffff" cursor="pointer"></path>
    <path
      d="M507 344L507 344L603 343L603 309L738 309L748 312L748 346L771 347L771 362L782 368L775 370L772 373L773 378L770 380L772 420L824 422L824 427L833 428L833 430L823 436L823 484L877 488L878 492L888 492L888 496L877 516L879 627L883 628L884 732L880 734L852 871L828 887L783 907L727 906L712 904L712 893L716 890L717 886L723 882L546 827L524 836L521 753L519 746L516 744L522 738L506 391L501 376L489 375L489 373L499 370L501 364L508 364L507 344 z"
      opacity="0" fill="#ffffff" cursor="pointer"></path>
    <path
      d="M1054 493L1054 493L1065 492L1065 488L1119 488L1120 442L1120 436L1109 430L1109 428L1118 427L1118 422L1161 422L1160 332L1155 327L1155 326L1160 321L1167 320L1282 320L1284 323L1291 326L1291 327L1283 330L1282 331L1343 331L1343 345L1362 345L1361 363L1365 368L1374 370L1375 372L1362 375L1362 384L1359 384L1348 675L1352 679L1348 680L1348 688L1352 692L1348 695L1347 700L1345 754L1337 766L1299 766L1298 787L1247 788L1247 814L1219 827L1177 828L1088 830L1062 737L1054 732L1054 629L1066 627L1066 511L1054 493 z"
      opacity="0" fill="#ffffff" cursor="pointer"></path>
  </g>
</svg>
