<svg xmlns="http://www.w3.org/2000/svg" version="1.1" xmlns:xlink="http://www.w3.org/1999/xlink"
  xmlns:svgjs="http://svgjs.dev/svgjs" width="100%" height="100%" viewBox="0 0 1920 1080">
  <g>
    <path
      d="M1170 212L1170 212L1195 183L1198 181L1188 178L1181 175L1174 169L1178 163L1188 158L1202 153L1222 148L1248 143L1276 141L1308 138L1338 137L1362 138L1388 138L1410 141L1424 146L1435 150L1437 155L1429 162L1419 167L1410 171L1402 173L1447 174L1448 179L1457 179L1458 182L1446 187L1444 196L1442 197L1436 293L1482 293L1483 298L1494 299L1494 301L1483 303L1480 308L1480 314L1477 315L1453 704L1056 767L1056 647L1059 645L1060 640L1067 342L1064 335L1062 331L1058 331L1055 330L1059 322L1068 320L1069 314L1127 313L1126 273L1123 269L1115 268L1131 247L1140 240L1183 240L1182 222L1180 216L1170 212 z"
      opacity="0" fill="#ffffff" cursor="pointer"></path>
    <path
      d="M691 380L691 380L702 380L704 373L708 373L708 353L788 352L788 334L871 335L891 341L891 352L947 352L959 356L959 371L965 374L963 379L974 380L974 382L962 386L962 394L962 422L965 422L965 642L973 644L972 746L953 790L802 792L763 793L737 792L708 789L679 785L649 779L623 773L606 759L600 550L596 546L601 542L600 522L598 520L597 513L588 510L587 506L595 503L596 500L603 498L614 497L664 494L664 461L657 452L657 450L665 442L673 442L675 437L708 437L708 397L705 389L702 382L691 382L691 380 z"
      opacity="0" fill="#ffffff" cursor="pointer"></path>
  </g>
</svg>
